<?xml version="1.0" standalone="no"?>
<!DOCTYPE svg PUBLIC "-//W3C//DTD SVG 20010904//EN"
 "http://www.w3.org/TR/2001/REC-SVG-20010904/DTD/svg10.dtd">
<svg version="1.0" xmlns="http://www.w3.org/2000/svg"
 width="512.000000pt" height="512.000000pt" viewBox="0 0 512.000000 512.000000"
 preserveAspectRatio="xMidYMid meet">
<metadata>
Created by potrace 1.11, written by Peter Selinger 2001-2013
</metadata>
<g transform="translate(0.000000,512.000000) scale(0.100000,-0.100000)"
fill="#000000" stroke="none">
<path d="M2340 5090 c-619 -60 -1165 -314 -1596 -744 -589 -590 -850 -1425
-699 -2240 204 -1103 1110 -1941 2235 -2067 135 -15 425 -15 560 0 582 65
1122 325 1536 738 987 983 987 2582 0 3569 -401 400 -913 654 -1476 730 -134
18 -436 25 -560 14z m630 -173 c941 -166 1693 -857 1925 -1771 251 -991 -156
-2024 -1020 -2585 -801 -520 -1829 -520 -2630 0 -864 561 -1271 1594 -1020
2585 234 921 1004 1623 1946 1773 179 29 182 29 429 26 188 -2 249 -7 370 -28z"/>
<path d="M2450 4674 c-394 -26 -761 -147 -1070 -352 -129 -86 -242 -179 -238
-196 4 -18 862 -1525 868 -1526 5 0 756 2005 767 2048 5 21 2 22 -44 22 -28 0
-90 2 -139 4 -49 2 -114 2 -144 0z"/>
<path d="M3253 4553 c3 -4 260 -685 572 -1513 312 -828 570 -1511 574 -1519
15 -27 118 186 183 379 165 490 138 1033 -76 1521 -172 392 -498 752 -877 969
-137 79 -392 189 -376 163z"/>
<path d="M2645 2999 l-360 -969 -240 0 -240 0 -465 827 c-256 454 -478 848
-494 876 l-28 50 -49 -77 c-160 -250 -257 -502 -310 -803 -33 -185 -33 -501 0
-687 99 -560 388 -1025 852 -1369 l36 -27 104 275 104 275 242 0 242 0 -20
-52 c-89 -234 -266 -714 -264 -716 8 -10 249 -84 331 -102 233 -51 527 -65
744 -36 452 61 843 243 1183 551 l67 61 -535 1443 c-294 795 -536 1445 -537
1447 -2 1 -165 -434 -363 -967z m875 -1299 l0 -280 -1040 0 -1040 0 0 273 c0
151 3 277 7 280 3 4 471 7 1040 7 l1033 0 0 -280z"/>
</g>
</svg>
