<?xml version="1.0"?>
<svg xmlns="http://www.w3.org/2000/svg" height="512px" viewBox="0 -3 423.25333 423" width="512px" class=""><g><path d="m320.851562 160.554688c0 88.601562-71.824218 160.425781-160.425781 160.425781-88.601562 0-160.425781-71.824219-160.425781-160.425781 0-88.601563 71.824219-160.429688 160.425781-160.429688 88.601563 0 160.425781 71.828125 160.425781 160.429688zm0 0" fill="#edebdc" data-original="#EDEBDC" class="active-path" style="fill:#DFDFDF" data-old_color="#EDEBDC"/><path d="m75.09375 245.886719h320.851562v33.980469h-320.851562zm0 0" fill="#b5a19c" data-original="#B5A19C" class="" style="fill:#FE8C2D" data-old_color="#B5A19C"/><path d="m395.945312 286.691406h-320.851562c-3.773438 0-6.828125-3.054687-6.828125-6.824218v-33.980469c0-3.769531 3.054687-6.828125 6.828125-6.828125h320.851562c3.773438 0 6.828126 3.058594 6.828126 6.828125v33.980469c0 3.769531-3.054688 6.824218-6.828126 6.824218zm-314.023437-13.652344h307.199219v-20.324218h-307.199219zm0 0" fill="#4c241d" data-original="#4C241D" class="" style="fill:#484848" data-old_color="#4C241D"/><path d="m27.308594 389.246094h300.371094v20.480468h-300.371094zm0 0" fill="#b5a19c" data-original="#B5A19C" class="" style="fill:#FE8C2D" data-old_color="#B5A19C"/><path d="m327.679688 416.554688h-300.371094c-3.773438 0-6.828125-3.058594-6.828125-6.828126v-20.480468c0-3.769532 3.054687-6.824219 6.828125-6.824219h300.371094c3.773437 0 6.828124 3.054687 6.828124 6.824219v20.480468c0 3.769532-3.054687 6.828126-6.828124 6.828126zm-293.546876-13.65625h286.71875v-6.824219h-286.71875zm0 0" fill="#4c241d" data-original="#4C241D" class="" style="fill:#484848" data-old_color="#4C241D"/><path d="m354.988281 409.726562c0-16.964843 13.753907-30.71875 30.71875-30.71875 16.964844 0 30.71875 13.753907 30.71875 30.71875zm0 0" fill="#b5a19c" data-original="#B5A19C" class="" style="fill:#FE8C2D" data-old_color="#B5A19C"/><path d="m416.425781 416.554688h-61.4375c-3.773437 0-6.828125-3.058594-6.828125-6.828126 0-20.703124 16.847656-37.546874 37.546875-37.546874s37.546875 16.84375 37.546875 37.546874c0 3.769532-3.054687 6.828126-6.828125 6.828126zm-53.621093-13.65625h45.800781c-2.945313-9.859376-12.09375-17.066407-22.898438-17.066407-10.808593 0-19.953125 7.207031-22.902343 17.066407zm0 0" fill="#4c241d" data-original="#4C241D" class="" style="fill:#484848" data-old_color="#4C241D"/><path d="m382.292969 382.421875c-3.773438 0-6.828125-3.058594-6.828125-6.828125v-14.171875c0-14.773437-12.011719-26.789063-26.785156-26.789063h-116.574219c-18.816407 0-34.132813-15.3125-34.132813-34.132812 0-3.769531 3.054688-6.828125 6.828125-6.828125 3.773438 0 6.824219 3.058594 6.824219 6.828125 0 11.292969 9.1875 20.480469 20.480469 20.480469h116.574219c22.300781 0 40.441406 18.144531 40.441406 40.441406v14.171875c0 3.769531-3.054688 6.828125-6.828125 6.828125zm0 0" fill="#4c241d" data-original="#4C241D" class="" style="fill:#484848" data-old_color="#4C241D"/><path d="m75.09375 68.394531h320.851562v177.492188h-320.851562zm0 0" fill="#fff" data-original="#FFF" class=""/><path d="m395.945312 252.714844h-320.851562c-3.773438 0-6.828125-3.058594-6.828125-6.828125v-177.492188c0-3.769531 3.054687-6.828125 6.828125-6.828125h320.851562c3.773438 0 6.828126 3.058594 6.828126 6.828125v177.492188c0 3.769531-3.054688 6.828125-6.828126 6.828125zm-314.023437-13.65625h307.199219v-163.839844h-307.199219zm0 0" fill="#4c241d" data-original="#4C241D" class="" style="fill:#484848" data-old_color="#4C241D"/><path d="m274.128906 348.285156h-87.078125l13.683594-68.417968h59.710937zm0 0" fill="#b5a19c" data-original="#B5A19C" class="" style="fill:#FE8C2D" data-old_color="#B5A19C"/><path d="m274.125 355.113281h-87.074219c-2.042969 0-3.976562-.917969-5.277343-2.5-1.296876-1.582031-1.8125-3.660156-1.414063-5.667969l13.679687-68.417968c.640626-3.191406 3.441407-5.488282 6.695313-5.488282h59.710937c3.253907 0 6.054688 2.296876 6.695313 5.488282l13.679687 68.417968c.398438 2.007813-.121093 4.089844-1.414062 5.667969-1.300781 1.582031-3.234375 2.5-5.28125 2.5zm-78.746094-13.652343h70.421875l-10.953125-54.769532h-48.515625zm0 0" fill="#4c241d" data-original="#4C241D" class="" style="fill:#484848" data-old_color="#4C241D"/><path d="m232.105469 136.8125h61.441406v81.765625h-61.441406zm0 0" fill="#edebdc" data-original="#EDEBDC" class="active-path" style="fill:#DFDFDF" data-old_color="#EDEBDC"/><path d="m293.546875 225.40625h-61.441406c-3.773438 0-6.824219-3.054688-6.824219-6.828125v-81.765625c0-3.769531 3.050781-6.824219 6.824219-6.824219h61.441406c3.773437 0 6.828125 3.054688 6.828125 6.824219v81.765625c0 3.773437-3.054688 6.828125-6.828125 6.828125zm-54.613281-13.652344h47.785156v-68.113281h-47.785156zm0 0" fill="#4c241d" data-original="#4C241D" class="" style="fill:#484848" data-old_color="#4C241D"/><path d="m280.347656 109.351562h60.984375v88.75h-60.984375zm0 0" fill="#9dc1e4" data-original="#9DC1E4" class=""/><g fill="#4c241d"><path d="m341.332031 204.925781h-60.984375c-3.773437 0-6.828125-3.054687-6.828125-6.824219v-88.75c0-3.769531 3.054688-6.824218 6.828125-6.824218h60.984375c3.773438 0 6.828125 3.054687 6.828125 6.824218v88.75c0 3.769532-3.054687 6.824219-6.828125 6.824219zm-54.15625-13.652343h47.332031v-75.09375h-47.332031zm0 0" data-original="#000000" class="" style="fill:#000000"/><path d="m149.125 130.59375h-31.097656c-3.773438 0-6.828125-3.058594-6.828125-6.828125s3.054687-6.824219 6.828125-6.824219h31.097656c3.773438 0 6.828125 3.054688 6.828125 6.824219s-3.054687 6.828125-6.828125 6.828125zm0 0" data-original="#000000" class="" style="fill:#000000"/><path d="m191.148438 157.140625h-75.09375c-3.773438 0-6.828126-3.058594-6.828126-6.828125s3.054688-6.824219 6.828126-6.824219h75.09375c3.773437 0 6.824218 3.054688 6.824218 6.824219s-3.050781 6.828125-6.824218 6.828125zm0 0" data-original="#000000" class="" style="fill:#000000"/><path d="m191.148438 184.445312h-75.09375c-3.773438 0-6.828126-3.054687-6.828126-6.824218 0-3.769532 3.054688-6.828125 6.828126-6.828125h75.09375c3.773437 0 6.824218 3.058593 6.824218 6.828125 0 3.769531-3.050781 6.824218-6.824218 6.824218zm0 0" data-original="#000000" class="" style="fill:#000000"/><path d="m191.148438 211.753906h-75.09375c-3.773438 0-6.828126-3.058594-6.828126-6.828125s3.054688-6.824219 6.828126-6.824219h75.09375c3.773437 0 6.824218 3.054688 6.824218 6.824219s-3.050781 6.828125-6.824218 6.828125zm0 0" data-original="#000000" class="" style="fill:#000000"/></g></g> </svg>
