<?xml version="1.0"?>
<svg xmlns="http://www.w3.org/2000/svg" xmlns:xlink="http://www.w3.org/1999/xlink" version="1.1" id="Capa_1" x="0px" y="0px" viewBox="0 0 512 512" style="enable-background:new 0 0 512 512;" xml:space="preserve" width="512px" height="512px" class=""><g><path style="fill:#FF8D2D" d="M464.747,192.351l37.251-16.294l-16.914-38.666l-37.301,16.317  c-20.364-36.349-51.286-67.03-90.529-86.944l16.141-41.239l-39.301-15.382l-16.141,41.239  c-41.493-11.776-84.135-10.521-123.123,1.649l-18.815-43.013L137.35,26.932l18.602,42.527  c-35.724,19.372-66.182,48.831-86.615,86.327l-43.854-17.164l-15.382,39.301l42.725,16.722  c-13.054,41.363-12.987,84.111-1.894,123.442L9.976,335.999l16.914,38.667l39.404-17.236c18.971,37.405,48.814,69.432,87.249,90.872  l-14.963,38.231l39.301,15.382l14.366-36.706c43.002,14.031,87.59,13.812,128.348,1.704l15.365,35.126l38.666-16.914l-14.916-34.099  c38.054-19.963,70.333-51.286,91.238-91.502l35.545,13.912l15.382-39.301l-35.169-13.765  C479.403,277.222,477.971,232.741,464.747,192.351z" data-original="#FAC800" class="active-path" data-old_color="#FAC800"/><rect x="101.945" y="184.278" style="fill:#F8F9F3" width="316.524" height="147.716" data-original="#CBE6F7" class="" data-old_color="#36739C"/><path d="M505.517,324.822l-26.804-10.491c9.642-38.387,9.024-78.266-1.801-116.386l29.093-12.727  c5.06-2.213,7.368-8.109,5.154-13.17c0,0-16.831-38.478-16.913-38.666c-2.059-4.707-8.142-7.353-13.171-5.154l-29.163,12.757  c-20.245-32.993-48.376-60.015-82.105-78.861c0,0,12.857-32.849,12.898-32.954c1.857-4.745-0.526-10.945-5.667-12.958l-39.3-15.383  c-5.144-2.015-10.944,0.524-12.958,5.667l-12.899,32.955c-36.709-8.843-74.874-8.32-111.409,1.525c0,0-15.231-34.819-15.296-34.968  c-2.206-5.042-8.138-7.356-13.171-5.155l-38.667,16.913c-5.06,2.213-7.367,8.11-5.154,13.171l14.994,34.278  c-32.262,19.215-59.068,45.971-78.245,78.106c0,0-35.681-13.965-35.808-14.015c-4.75-1.859-10.942,0.518-12.958,5.667  c0,0-15.278,39.035-15.381,39.299c-1.86,4.753,0.5,10.936,5.667,12.959l34.199,13.385c-9.91,36.584-10.445,74.86-1.559,111.728  c0,0-32.933,14.406-33.127,14.491c-4.991,2.183-7.33,8.199-5.155,13.171c0,0,16.825,38.465,16.913,38.666  c2.155,4.926,8.265,7.302,13.171,5.155l30.928-13.529c19.009,33.939,46.171,62.145,79.285,82.326c0,0-11.785,30.11-11.844,30.262  c-1.879,4.8,0.511,10.94,5.667,12.958l39.301,15.382c5.143,2.013,10.944-0.524,12.958-5.667l10.996-28.096  c38.226,10.748,78.223,11.226,116.713,1.395c0,0,11.85,27.092,11.893,27.189c2.055,4.697,8.171,7.341,13.171,5.154  c0,0,38.459-16.822,38.666-16.913c4.872-2.131,7.276-8.321,5.155-13.171l-11.257-25.737c34.711-20.044,63.148-48.599,82.979-83.333  l27.339,10.699c5.144,2.013,10.944-0.524,12.958-5.667l15.382-39.301C513.198,332.636,510.66,326.834,505.517,324.822z   M480.823,360.478l-26.232-10.266c-4.761-1.865-10.16,0.164-12.519,4.7c-19.457,37.431-49.544,67.605-87.01,87.259  c-4.647,2.438-6.62,8.055-4.516,12.864l10.907,24.937l-20.342,8.897l-11.357-25.964c-2.022-4.623-7.171-7.017-12.01-5.578  c-40.208,11.943-82.533,11.382-122.397-1.625c-5.039-1.643-10.483,0.927-12.415,5.862l-10.721,27.392l-20.675-8.091l11.317-28.918  c1.822-4.656-0.074-9.942-4.44-12.379c-35.807-19.973-64.577-49.94-83.202-86.662c-2.398-4.729-8.069-6.762-12.927-4.639  l-30.241,13.229l-8.897-20.342l31.793-13.907c4.575-2.001,6.973-7.07,5.617-11.877c-10.911-38.691-10.287-79.397,1.807-117.718  c1.583-5.018-0.992-10.404-5.892-12.323L23.06,172.253l8.091-20.675l34.541,13.519c4.689,1.834,10.014-0.103,12.426-4.527  c18.992-34.851,47.555-63.317,82.601-82.322c4.567-2.477,6.477-8.038,4.395-12.799L150.52,32.085l20.342-8.897l14.808,33.851  c2.043,4.671,7.273,7.061,12.143,5.539c38.306-11.959,78.907-12.503,117.413-1.575c4.954,1.407,10.166-1.181,12.043-5.976  L339.763,23.1l20.675,8.091l-12.496,31.926c-1.877,4.795,0.195,10.232,4.787,12.563c36.453,18.498,66.305,47.169,86.331,82.914  c2.513,4.486,8.02,6.336,12.732,4.274l28.139-12.309l8.897,20.342l-28.088,12.287c-4.72,2.065-7.099,7.377-5.496,12.274  c13.022,39.776,13.668,81.992,1.866,122.084c-1.464,4.976,1.119,10.246,5.949,12.137l25.856,10.12L480.823,360.478z" data-original="#000000" class="" style="fill:#24292E" data-old_color="#FAC800"/><path d="M418.469,174.281H101.945c-5.523,0-10,4.477-10,10v147.712c0,5.523,4.477,10,10,10h316.525c5.523,0,10-4.477,10-10V184.281  C428.47,178.758,423.992,174.281,418.469,174.281z M408.469,321.993H111.945V194.282h296.524V321.993z" data-original="#000000" class="" style="fill:#24292E" data-old_color="#FAC800"/><path d="M151.705,295.465c5.08,4.44,11.74,6.66,19.981,6.66c8.479,0,15.38-2.16,20.701-6.48c5.319-4.32,7.979-10.079,7.98-17.279  c0-4.937-2.874-7.683-7.92-7.683c-4.88,0-7.439,1.64-7.68,4.918c-0.563,7.662-4.094,12.843-12.241,12.843  c-8.561,0-12.841-4.6-12.841-13.801v-33.481c0-9.199,4.2-13.801,12.601-13.801c5.926,0,11.196,2.958,12.182,9.184  c0.853,5.434,2.076,7.616,8.098,7.616c4.978,0,7.801-2.539,7.801-7.68c0-6.879-2.661-12.4-7.98-16.561  c-5.321-4.159-12.181-6.24-20.581-6.24c-8.241,0-14.922,2.22-20.041,6.66c-5.121,4.44-7.68,11.381-7.68,20.821v33.481  C144.084,284.085,146.624,291.025,151.705,295.465z" data-original="#000000" class="" style="fill:#24292E" data-old_color="#FAC800"/><path d="M225.222,300.054c1.658,0.97,3.883,1.351,5.504,1.351c2.766,0,7.801-1.162,7.801-4.92v-52.562  c0,0,13.683,25.699,13.801,25.919c2.173,4.081,8.274,4.024,10.441,0.001l14.041-24.961c0,0,0,51.116,0,51.599  c0,3.749,4.871,4.923,7.799,4.923c2.745,0,7.801-1.23,7.801-4.92c0,0,0-74.699,0-75.002c0-4.501-3.126-7.801-7.801-7.801  c-6.116,0-9.423,3.236-12.24,8.28l-14.761,26.881c0,0-14.761-26.881-14.761-26.882c-2.875-5.149-5.955-8.28-12.121-8.28  c-4.725,0-7.8,3.13-7.8,7.8c0,0,0,74.171,0,74.996C222.926,298.12,223.892,299.276,225.222,300.054z" data-original="#000000" class="" style="fill:#24292E" data-old_color="#FAC800"/><path d="M322.649,297.804c5.439,3.12,11.958,4.68,19.561,4.68c8.559,0,15.46-2.228,20.701-6.687  c5.239-4.456,7.86-10.788,7.86-18.994c0-7.748-3.245-16.537-10.02-21.121c-7.87-5.325-18.584-7.313-25.619-13.619  c-3.887-3.484-3.648-9.85,0.658-12.843c2.358-1.639,5.7-2.46,10.02-2.46c5.97,0,11.063,4.557,16.556,4.56  c3.984,0.002,6.244-4.955,6.245-8.379c0.002-4.53-5.061-7.06-8.821-8.013c-7.816-1.972-16.568-2.608-24.42-0.57  c-11.198,2.907-18.721,11.275-18.721,23.082c0,6.216,2.48,13.404,7.62,17.461c6.963,5.496,15.568,8.167,23.281,12.361  c4.021,2.186,7.619,6.134,7.62,11.098c0.001,7.365-7.017,10.442-13.441,10.442c-7.356,0-11.411-3.986-16.864-8.106  c-3.008-2.272-6.072-1.635-8.277,1.326c-1.4,1.88-2.1,3.741-2.1,5.58C314.489,291.285,317.208,294.684,322.649,297.804z" data-original="#000000" class="" style="fill:#24292E" data-old_color="#FAC800"/><path d="M254.156,152.083c5.51,0,10-4.49,10-10c0-5.52-4.49-10-10-10c-5.52,0-10,4.48-10,10  C244.156,147.593,248.636,152.083,254.156,152.083z" data-original="#000000" class="" style="fill:#24292E" data-old_color="#FAC800"/><path d="M294.158,152.083h70.003c5.51,0,9.99-4.49,9.99-10c0-5.52-4.48-10-9.99-10h-70.003c-5.52,0-10,4.48-10,10  C284.157,147.593,288.638,152.083,294.158,152.083z" data-original="#000000" class="" style="fill:#24292E" data-old_color="#FAC800"/><path d="M144.151,152.083h70.003c5.51,0,10-4.49,10-10c0-5.52-4.49-10-10-10h-70.003c-5.52,0-10,4.48-10,10  C134.151,147.593,138.631,152.083,144.151,152.083z" data-original="#000000" class="" style="fill:#24292E" data-old_color="#FAC800"/><path d="M254.156,364.192c-5.52,0-10,4.49-10,10.01c0,5.51,4.48,9.99,10,9.99c5.51,0,10-4.48,10-9.99  C264.157,368.682,259.666,364.192,254.156,364.192z" data-original="#000000" class="" style="fill:#24292E" data-old_color="#FAC800"/><path d="M364.161,364.192h-70.003c-5.52,0-10,4.49-10,10.01c0,5.51,4.48,9.99,10,9.99h70.003c5.51,0,9.99-4.48,9.99-9.99  C374.151,368.682,369.671,364.192,364.161,364.192z" data-original="#000000" class="" style="fill:#24292E" data-old_color="#FAC800"/><path d="M214.154,364.192h-70.003c-5.52,0-10,4.49-10,10.01c0,5.51,4.48,9.99,10,9.99h70.003c5.51,0,10-4.48,10-9.99  C224.155,368.682,219.665,364.192,214.154,364.192z" data-original="#000000" class="" style="fill:#24292E" data-old_color="#FAC800"/></g> </svg>
