<?xml version="1.0"?>
<svg xmlns="http://www.w3.org/2000/svg" height="512px" version="1.1" viewBox="0 -10 650.001 650" width="512px" class=""><g><g id="surface1">
<path d="M 482.257812 178.226562 L 10.484375 178.226562 L 10.484375 450.804688 L 639.515625 450.804688 L 639.515625 178.226562 Z M 188.710938 356.453125 C 188.710938 379.613281 169.933594 398.386719 146.773438 398.386719 C 123.613281 398.386719 104.839844 379.613281 104.839844 356.453125 C 104.839844 379.613281 123.613281 398.386719 146.773438 398.386719 C 169.933594 398.386719 188.710938 379.613281 188.710938 356.453125 Z M 304.03125 314.515625 L 220.160156 314.515625 L 220.160156 251.613281 C 220.160156 240.035156 229.550781 230.644531 241.128906 230.644531 L 283.0625 230.644531 C 294.644531 230.644531 304.03125 240.035156 304.03125 251.613281 Z M 387.902344 398.386719 L 345.96875 230.644531 L 387.902344 398.386719 L 429.839844 230.644531 Z M 545.160156 251.613281 L 545.160156 314.515625 L 461.289062 314.515625 L 461.289062 251.613281 C 461.289062 240.035156 470.679688 230.644531 482.257812 230.644531 L 524.191406 230.644531 C 535.773438 230.644531 545.160156 240.035156 545.160156 251.613281 Z M 545.160156 251.613281 " style="fill:#F7DF1E" data-original="#FF734F" class="active-path" data-old_color="#FF734F"/>
<path d="M 283.066406 230.644531 L 241.128906 230.644531 C 229.550781 230.644531 220.160156 240.035156 220.160156 251.613281 L 220.160156 314.515625 L 304.03125 314.515625 L 304.03125 251.613281 C 304.03125 240.035156 294.644531 230.644531 283.066406 230.644531 Z M 283.066406 230.644531 " style="fill:#F7DF1E" data-original="#FF734F" class="active-path" data-old_color="#FF734F"/>
<path d="M 482.257812 230.644531 C 470.679688 230.644531 461.289062 240.035156 461.289062 251.613281 L 461.289062 314.515625 L 545.160156 314.515625 L 545.160156 251.613281 C 545.160156 240.035156 535.773438 230.644531 524.191406 230.644531 Z M 482.257812 230.644531 " style="fill:#F7DF1E" data-original="#FF734F" class="active-path" data-old_color="#FF734F"/>
<path d="M 167.742188 450.804688 L 482.257812 450.804688 L 482.257812 503.226562 L 167.742188 503.226562 Z M 167.742188 450.804688 " style=" stroke:none;fill-rule:nonzero;fill:rgb(100%,86.27451%,82.745098%);fill-opacity:1;" data-original="#FFDCD3" class=""/>
<path d="M 167.742188 125.804688 L 482.257812 125.804688 L 482.257812 178.226562 L 167.742188 178.226562 Z M 167.742188 125.804688 " style=" stroke:none;fill-rule:nonzero;fill:rgb(100%,86.27451%,82.745098%);fill-opacity:1;" data-original="#FFDCD3" class=""/>
<path d="M 209.675781 83.871094 L 440.320312 83.871094 L 440.320312 104.839844 L 209.675781 104.839844 Z M 209.675781 83.871094 " style="fill:#231F20" data-original="#231F20" class="" data-old_color=" stroke:nonefill-rule:nonzero;rgb(13.72549%,12.156863%,12.54902%);fill-opacity:1;"/>
<path d="M 241.128906 52.417969 L 408.871094 52.417969 L 408.871094 73.386719 L 241.128906 73.386719 Z M 241.128906 52.417969 " style="fill:#231F20" data-original="#231F20" class="" data-old_color=" stroke:nonefill-rule:nonzero;rgb(13.72549%,12.156863%,12.54902%);fill-opacity:1;"/>
<path d="M 209.675781 524.195312 L 440.320312 524.195312 L 440.320312 545.160156 L 209.675781 545.160156 Z M 209.675781 524.195312 " style="fill:#231F20" data-original="#231F20" class="" data-old_color=" stroke:nonefill-rule:nonzero;rgb(13.72549%,12.156863%,12.54902%);fill-opacity:1;"/>
<path d="M 241.128906 555.644531 L 408.871094 555.644531 L 408.871094 576.613281 L 241.128906 576.613281 Z M 241.128906 555.644531 " style="fill:#231F20" data-original="#231F20" class="" data-old_color=" stroke:nonefill-rule:nonzero;rgb(13.72549%,12.156863%,12.54902%);fill-opacity:1;"/>
<path d="M 649.820312 177.355469 C 649.753906 176.644531 649.613281 175.941406 649.402344 175.257812 C 649.070312 174 648.460938 172.828125 647.621094 171.832031 C 647.1875 171.257812 646.6875 170.738281 646.132812 170.28125 C 645.902344 170.082031 645.777344 169.820312 645.523438 169.640625 L 545.160156 99.375 L 545.160156 10.484375 C 545.160156 4.695312 540.46875 0 534.675781 0 L 115.324219 0 C 109.53125 0 104.839844 4.695312 104.839844 10.484375 L 104.839844 99.378906 L 4.476562 169.617188 C 4.226562 169.796875 4.101562 170.058594 3.859375 170.257812 C 3.308594 170.71875 2.816406 171.242188 2.378906 171.808594 C 1.539062 172.808594 0.933594 173.976562 0.597656 175.238281 C 0.386719 175.921875 0.246094 176.625 0.179688 177.335938 C 0.101562 177.628906 0.0429688 177.925781 0 178.226562 L 0 450.804688 C 0 456.597656 4.695312 461.289062 10.484375 461.289062 L 104.839844 461.289062 L 104.839844 618.546875 C 104.839844 624.339844 109.53125 629.03125 115.324219 629.03125 L 534.679688 629.03125 C 540.46875 629.03125 545.160156 624.339844 545.160156 618.546875 L 545.160156 461.289062 L 639.515625 461.289062 C 645.308594 461.289062 650 456.597656 650 450.804688 L 650 178.226562 C 649.957031 177.933594 649.894531 177.640625 649.820312 177.355469 Z M 606.261719 167.742188 L 545.160156 167.742188 L 545.160156 124.976562 Z M 524.195312 20.96875 L 524.195312 167.742188 L 492.742188 167.742188 L 492.742188 125.804688 C 492.742188 120.015625 488.046875 115.324219 482.257812 115.324219 L 167.742188 115.324219 C 161.953125 115.324219 157.257812 120.015625 157.257812 125.804688 L 157.257812 167.742188 L 125.804688 167.742188 L 125.804688 20.96875 Z M 178.226562 167.742188 L 178.226562 136.289062 L 471.773438 136.289062 L 471.773438 167.742188 Z M 104.839844 167.742188 L 43.738281 167.742188 L 104.839844 124.976562 Z M 524.195312 608.066406 L 125.804688 608.066406 L 125.804688 461.289062 L 157.257812 461.289062 L 157.257812 503.226562 C 157.257812 509.015625 161.953125 513.710938 167.742188 513.710938 L 482.257812 513.710938 C 488.046875 513.710938 492.742188 509.015625 492.742188 503.226562 L 492.742188 461.289062 L 524.195312 461.289062 Z M 471.773438 461.289062 L 471.773438 492.742188 L 178.226562 492.742188 L 178.226562 461.289062 Z M 629.03125 440.324219 L 20.96875 440.324219 L 20.96875 188.710938 L 629.03125 188.710938 Z M 629.03125 440.324219 " style="fill:#231F20" data-original="#231F20" class="" data-old_color=" stroke:nonefill-rule:nonzero;rgb(13.72549%,12.156863%,12.54902%);fill-opacity:1;"/>
<path d="M 188.710938 220.160156 C 182.921875 220.160156 178.226562 224.855469 178.226562 230.644531 L 178.226562 356.453125 C 178.226562 373.820312 164.144531 387.902344 146.773438 387.902344 C 129.402344 387.902344 115.320312 373.824219 115.320312 356.453125 C 115.320312 350.660156 110.628906 345.96875 104.839844 345.96875 C 99.046875 345.96875 94.355469 350.660156 94.355469 356.453125 C 94.355469 385.402344 117.824219 408.871094 146.773438 408.871094 C 175.722656 408.871094 199.191406 385.402344 199.191406 356.453125 L 199.191406 230.644531 C 199.195312 224.855469 194.5 220.160156 188.710938 220.160156 Z M 188.710938 220.160156 " style="fill:#231F20" data-original="#231F20" class="" data-old_color=" stroke:nonefill-rule:nonzero;rgb(13.72549%,12.156863%,12.54902%);fill-opacity:1;"/>
<path d="M 283.066406 220.160156 L 241.128906 220.160156 C 223.761719 220.160156 209.679688 234.242188 209.679688 251.613281 L 209.679688 398.386719 C 209.679688 404.175781 214.371094 408.871094 220.160156 408.871094 C 225.953125 408.871094 230.644531 404.175781 230.644531 398.386719 L 230.644531 325 L 293.550781 325 L 293.550781 398.386719 C 293.550781 404.175781 298.242188 408.871094 304.03125 408.871094 C 309.824219 408.871094 314.515625 404.175781 314.515625 398.386719 L 314.515625 251.613281 C 314.515625 234.242188 300.433594 220.160156 283.066406 220.160156 Z M 230.644531 304.03125 L 230.644531 251.613281 C 230.644531 245.824219 235.339844 241.128906 241.128906 241.128906 L 283.0625 241.128906 C 288.855469 241.128906 293.546875 245.824219 293.546875 251.613281 L 293.546875 304.03125 Z M 230.644531 304.03125 " style="fill:#231F20" data-original="#231F20" class="" data-old_color=" stroke:nonefill-rule:nonzero;rgb(13.72549%,12.156863%,12.54902%);fill-opacity:1;"/>
<path d="M 482.257812 220.160156 C 464.886719 220.160156 450.804688 234.242188 450.804688 251.613281 L 450.804688 398.386719 C 450.804688 404.175781 455.5 408.871094 461.289062 408.871094 C 467.078125 408.871094 471.773438 404.175781 471.773438 398.386719 L 471.773438 325 L 534.675781 325 L 534.675781 398.386719 C 534.675781 404.175781 539.371094 408.871094 545.160156 408.871094 C 550.949219 408.871094 555.644531 404.175781 555.644531 398.386719 L 555.644531 251.613281 C 555.644531 234.242188 541.5625 220.160156 524.191406 220.160156 Z M 534.675781 251.613281 L 534.675781 304.03125 L 471.773438 304.03125 L 471.773438 251.613281 C 471.773438 245.824219 476.46875 241.128906 482.257812 241.128906 L 524.191406 241.128906 C 529.984375 241.128906 534.675781 245.824219 534.675781 251.613281 Z M 534.675781 251.613281 " style="fill:#231F20" data-original="#231F20" class="" data-old_color=" stroke:nonefill-rule:nonzero;rgb(13.72549%,12.156863%,12.54902%);fill-opacity:1;"/>
<path d="M 432.375 220.476562 C 426.761719 219.078125 421.078125 222.488281 419.671875 228.097656 L 387.902344 355.164062 L 356.136719 228.097656 C 354.691406 222.492188 348.972656 219.121094 343.367188 220.570312 C 337.816406 222 334.445312 227.625 335.800781 233.195312 L 377.734375 400.933594 C 379.140625 406.550781 384.835938 409.964844 390.453125 408.554688 C 394.203125 407.617188 397.132812 404.6875 398.074219 400.933594 L 440.007812 233.195312 C 441.414062 227.578125 438 221.882812 432.382812 220.476562 C 432.378906 220.476562 432.378906 220.476562 432.375 220.476562 Z M 432.375 220.476562 " style="fill:#231F20" data-original="#231F20" class="" data-old_color=" stroke:nonefill-rule:nonzero;rgb(13.72549%,12.156863%,12.54902%);fill-opacity:1;"/>
</g></g> </svg>
