<?xml version="1.0"?>
<svg xmlns="http://www.w3.org/2000/svg" xmlns:xlink="http://www.w3.org/1999/xlink" version="1.1" id="Capa_1" x="0px" y="0px" viewBox="0 0 60 60" style="enable-background:new 0 0 60 60;" xml:space="preserve" width="512px" height="512px" class=""><g><path style="fill:#2C3339" d="M55.392,20.5H4.608C2.616,20.5,1,18.884,1,16.892V5.108C1,3.116,2.616,1.5,4.608,1.5h50.783  C57.384,1.5,59,3.116,59,5.108v11.783C59,18.884,57.384,20.5,55.392,20.5z" data-original="#424A60" class="" data-old_color="#424A60"/><circle style="fill:none;stroke:#424A60;stroke-width:2;stroke-linecap:round;stroke-miterlimit:10;" cx="30" cy="53.5" r="4"/><path style="fill:#5C6891" d="M55.392,39.5H4.608C2.616,39.5,1,37.884,1,35.892V24.108C1,22.116,2.616,20.5,4.608,20.5h50.783  c1.993,0,3.608,1.616,3.608,3.608v11.783C59,37.884,57.384,39.5,55.392,39.5z" data-original="#556080" class="" data-old_color="#5D6992"/><line style="fill:none;stroke:#424A60;stroke-width:2;stroke-linecap:round;stroke-miterlimit:10;" x1="1" y1="53.5" x2="26" y2="53.5"/><line style="fill:none;stroke:#424A60;stroke-width:2;stroke-linecap:round;stroke-miterlimit:10;" x1="34" y1="53.5" x2="59" y2="53.5"/><line style="fill:none;stroke:#424A60;stroke-width:2;stroke-miterlimit:10;" x1="30" y1="49.5" x2="30" y2="39.5"/><circle style="fill:#F4F0F0" cx="10.5" cy="11" r="3.5" data-original="#7383BF" class="active-path" data-old_color="#B19494"/><circle style="fill:#F4F0F0" cx="10.5" cy="30" r="3.5" data-original="#7383BF" class="active-path" data-old_color="#B19494"/><g>
	<circle style="fill:#F4F0F0" cx="50" cy="9.5" r="1" data-original="#7383BF" class="active-path" data-old_color="#B19494"/>
	<circle style="fill:#F4F0F0" cx="46" cy="9.5" r="1" data-original="#7383BF" class="active-path" data-old_color="#B19494"/>
	<circle style="fill:#F4F0F0" cx="52" cy="12.5" r="1" data-original="#7383BF" class="active-path" data-old_color="#B19494"/>
	<circle style="fill:#F4F0F0" cx="48" cy="12.5" r="1" data-original="#7383BF" class="active-path" data-old_color="#B19494"/>
	<circle style="fill:#F4F0F0" cx="42" cy="9.5" r="1" data-original="#7383BF" class="active-path" data-old_color="#B19494"/>
	<circle style="fill:#F4F0F0" cx="44" cy="12.5" r="1" data-original="#7383BF" class="active-path" data-old_color="#B19494"/>
	<circle style="fill:#F4F0F0" cx="38" cy="9.5" r="1" data-original="#7383BF" class="active-path" data-old_color="#B19494"/>
	<circle style="fill:#F4F0F0" cx="40" cy="12.5" r="1" data-original="#7383BF" class="active-path" data-old_color="#B19494"/>
	<circle style="fill:#F4F0F0" cx="34" cy="9.5" r="1" data-original="#7383BF" class="active-path" data-old_color="#B19494"/>
	<circle style="fill:#F4F0F0" cx="36" cy="12.5" r="1" data-original="#7383BF" class="active-path" data-old_color="#B19494"/>
	<circle style="fill:#F4F0F0" cx="50" cy="28.5" r="1" data-original="#7383BF" class="active-path" data-old_color="#B19494"/>
	<circle style="fill:#F4F0F0" cx="46" cy="28.5" r="1" data-original="#7383BF" class="active-path" data-old_color="#B19494"/>
	<circle style="fill:#F4F0F0" cx="52" cy="31.5" r="1" data-original="#7383BF" class="active-path" data-old_color="#B19494"/>
	<circle style="fill:#F4F0F0" cx="48" cy="31.5" r="1" data-original="#7383BF" class="active-path" data-old_color="#B19494"/>
	<circle style="fill:#F4F0F0" cx="42" cy="28.5" r="1" data-original="#7383BF" class="active-path" data-old_color="#B19494"/>
	<circle style="fill:#F4F0F0" cx="44" cy="31.5" r="1" data-original="#7383BF" class="active-path" data-old_color="#B19494"/>
	<circle style="fill:#F4F0F0" cx="38" cy="28.5" r="1" data-original="#7383BF" class="active-path" data-old_color="#B19494"/>
	<circle style="fill:#F4F0F0" cx="40" cy="31.5" r="1" data-original="#7383BF" class="active-path" data-old_color="#B19494"/>
	<circle style="fill:#F4F0F0" cx="34" cy="28.5" r="1" data-original="#7383BF" class="active-path" data-old_color="#B19494"/>
	<circle style="fill:#F4F0F0" cx="36" cy="31.5" r="1" data-original="#7383BF" class="active-path" data-old_color="#B19494"/>
</g></g> </svg>
